<svg xmlns="http://www.w3.org/2000/svg" enable-background="new 0 0 32 32" viewBox="0 0 32 32" id="Gmail">
  <path fill="#00000000" d="M26,32H6c-3.314,0-6-2.686-6-6V6c0-3.314,2.686-6,6-6h20c3.314,0,6,2.686,6,6v20C32,29.314,29.314,32,26,32z" class="colorffe6e2 svgShape"></path>
  <path fill="#9b9b9b" d="M9,22h1v-9.075l6,4.309l6-4.309V22h1c0.567,0,1-0.433,1-1V11c0-0.283-0.107-0.533-0.287-0.712C23.534,10.108,23.284,10,23,10h-0.333L16,14.833L9.333,10H9c-0.283,0-0.533,0.107-0.713,0.288C8.108,10.467,8,10.717,8,11v10C8,21.567,8.432,22,9,22z" class="colorfc573b svgShape"></path>
</svg>
